<svg xmlns="http://www.w3.org/2000/svg" width="62.74" height="64.001" viewBox="0 0 62.74 64.001">
  <g id="digital-transformation-icon" transform="translate(-1.63 -0.999)">
    <g id="Group_265" data-name="Group 265">
      <path id="Path_170" data-name="Path 170" d="M1.832,47.009A182.75,182.75,0,0,0,32.42,64.951a.5.5,0,0,0,.419,0A210.009,210.009,0,0,0,64.15,47.5a.5.5,0,0,0-.04-.853c-4.106-2.25-8.219-4.415-12.1-6.44,4.118-2.377,8.2-4.922,12.137-7.588a.5.5,0,0,0-.041-.853c-3.995-2.184-7.96-4.275-11.4-6.076,3.81-2.224,7.654-4.639,11.442-7.2a.5.5,0,0,0-.04-.853C53.786,12,43.173,6.727,32.819,1.061a.5.5,0,0,0-.469-.006C22.244,6.243,12.019,11.97,1.9,17.162a.5.5,0,0,0-.068.848c3.5,2.582,7.233,5.086,11.11,7.462C9.062,27.545,5.5,29.436,1.9,31.279a.5.5,0,0,0-.069.848C5.534,34.863,9.5,37.506,13.61,40,9.168,42.385,5.423,44.356,1.9,46.162A.5.5,0,0,0,1.832,47.009ZM51.438,41.16l-.187.187-.441-.44.181-.1.576.3A.234.234,0,0,0,51.438,41.16Zm-1.813.408c.243-.137.489-.27.732-.408l.541.541-.57.57Zm-1.657,1.626-.45-.449,1.653-.923.085.085Zm-.585-14.475-.291.291-.085-.085ZM32.573,2.065C42.586,7.54,52.856,12.658,62.908,18.126c-3.806,2.551-7.664,4.958-11.48,7.162A204.62,204.62,0,0,1,32.64,34.95,184.241,184.241,0,0,1,3.076,17.683C12.9,12.616,22.808,7.086,32.573,2.065Zm2.658,32.78.506.506-.919.919-.841-.841C34.4,35.237,34.813,35.04,35.231,34.845Zm.482-.224c.282-.132.564-.26.846-.393l.151.151L36.091,35ZM37.042,34l.081-.038-.059.059ZM13.929,26.08C19.839,29.657,26.208,33,32.42,35.952a.493.493,0,0,0,.212.048.468.468,0,0,0,.207-.043c.219-.1.435-.205.654-.3l.971.971-.123.123a.25.25,0,0,0,.354.354l.123-.123.4.4a.25.25,0,1,0,.354-.354l-.4-.4.919-.919.232.232a.25.25,0,1,0,.354-.354l-.232-.232.619-.619.763.763a.25.25,0,0,0,.354-.354l-.763-.763.721-.721a.236.236,0,0,0,.06-.208c.357-.173.709-.354,1.064-.529l.07-.035.408.408-.834.834a.25.25,0,0,0,.354.354l.834-.834.722.722a.25.25,0,0,0,.354-.354l-.722-.722.65-.65a.25.25,0,0,0-.354-.354l-.65.65-.289-.289c.677-.335,1.356-.665,2.028-1.007l.6.6-.385.385a.25.25,0,1,0,.354.354l.385-.385.128.128a.25.25,0,1,0,.354-.354l-.128-.128.985-.985a.25.25,0,0,0-.354-.354l-.985.985-.483-.483c.656-.336.889-.465,1.889-1l.814.814a.25.25,0,1,0,.354-.354l-.705-.7c.629-.333,1.262-.66,1.887-1l.194.194-1.17,1.17a.25.25,0,1,0,.354.354l1.17-1.17.647.647a.25.25,0,1,0,.354-.354l-.647-.647.562-.562a.25.25,0,0,0,0-.354c-.023-.023-.055-.022-.083-.035.3-.164.588-.333.883-.5l.513.513-.759.759a.25.25,0,0,0,.354.354l.759-.759.16.159a.25.25,0,1,0,.354-.354l-.16-.16.814-.814a.25.25,0,1,0-.354-.354l-.814.814-.414-.414c.571-.32,1.145-.637,1.71-.962a.244.244,0,0,0,.061.148l.572.571-.5.5a.25.25,0,0,0,.354.354l.5-.5.293.293a.25.25,0,0,0,.354-.354l-.293-.293.161-.161a.25.25,0,1,0-.354-.354l-.161.161-.571-.571c-.008-.008-.02,0-.029-.012.111-.064.225-.125.336-.189,3.357,1.754,7.262,3.809,11.217,5.962A210.969,210.969,0,0,1,32.644,49.064c-6.1-2.9-12-6-17.771-9.465-.683-.068-11.2-7.372-11.792-7.8C6.6,29.987,10.1,28.127,13.929,26.08ZM44.9,44.317,43.813,45.4l-.443-.443c.019-.01,1.048-.55,1.419-.747ZM40.816,46.6c-.027.012-.059.011-.081.034l-1.384,1.384-.687-.687c.167-.081,1.351-.666,1.928-.955Zm-5.2,2.186.253.253L34.58,50.325l-.723-.723C34.444,49.333,35.029,49.058,35.615,48.784Zm.483-.225c.154-.073.309-.142.463-.215l-.339.339ZM14.6,40.606c5.7,3.41,11.751,6.582,17.822,9.464a.506.506,0,0,0,.419,0c.179-.081.356-.168.535-.249l.852.852-.233.233a.25.25,0,0,0,.354.354l.233-.233.032.032a.25.25,0,1,0,.354-.354l-.032-.032,1.288-1.288.6.6a.25.25,0,1,0,.354-.354l-.6-.6,1.061-1.061a.248.248,0,0,0,.071-.172c.162-.078.322-.162.485-.24l1.094,1.1a.25.25,0,0,0,.354,0,.236.236,0,0,0,.038-.262l1.411-1.411c.022-.022.022-.054.034-.081l.515.515a.25.25,0,1,0,.354-.354l-.926-.926c.342-.172,1.57-.8,1.843-.939l.552.552-.849.849a.25.25,0,1,0,.354.354l.849-.849.183.183a.25.25,0,0,0,.354-.354l-.183-.183,1.083-1.083.48.48a.25.25,0,1,0,.354-.354l-.83-.831c1-.533.363-.178,1.813-.968l.549.549-.9.9a.25.25,0,0,0,.354.354l.9-.9a.247.247,0,0,0,.35,0,.25.25,0,0,0,0-.35l1.289-1.289.755.755a.25.25,0,0,0,.354-.354l-.037-.037.613-.613a.2.2,0,0,0,.208-.06.238.238,0,0,0,.06-.208l.23-.23a.237.237,0,0,0,.034-.272c3.565,1.862,7.321,3.839,11.083,5.892A209.268,209.268,0,0,1,32.647,63.944,182.275,182.275,0,0,1,3.076,46.682C6.533,44.9,10.223,42.956,14.6,40.606Z" fill="#000c1e"/>
    </g>
    <g id="Group_266" data-name="Group 266">
      <path id="Path_171" data-name="Path 171" d="M20.662,16.249l1.281-1.281.8.8a.25.25,0,1,0,.354-.354l-.8-.8,1.4-1.4.43.43a.25.25,0,0,0,.354-.354l-.43-.43.754-.754.976.976a.25.25,0,1,0,.354-.354l-.976-.976,1.068-1.068a.25.25,0,1,0-.354-.354L24.8,11.4l-.523-.523a.25.25,0,0,0-.354.354l.523.523-.754.754-.582-.582a.25.25,0,0,0-.354.354l.582.582-1.4,1.4-.7-.7a.25.25,0,0,0-.354.354l.7.7L20.308,15.9a.25.25,0,1,0,.354.354Z" fill="#000c1e"/>
    </g>
    <g id="Group_267" data-name="Group 267">
      <path id="Path_172" data-name="Path 172" d="M15.409,33.157l-.231.231a.25.25,0,1,0,.354.354l.231-.231.463.463-.581.581a.25.25,0,0,0,.354.354l.581-.581,1.338,1.338-.873.872a.25.25,0,0,0,.354.354l.873-.872,1.223,1.223a.25.25,0,1,0,.354-.354l-1.223-1.223.822-.822a.25.25,0,1,0-.354-.354l-.822.822-1.338-1.338.465-.465a.25.25,0,1,0-.354-.354l-.465.465-.463-.463.587-.587a.25.25,0,0,0-.354-.354l-.587.587-.581-.581a.25.25,0,0,0-.354.354Z" fill="#000c1e"/>
    </g>
    <g id="Group_268" data-name="Group 268">
      <path id="Path_173" data-name="Path 173" d="M25.562,54.5l.533-.534a.25.25,0,1,0-.354-.354l-.533.534-1.337-1.337.974-.974a.25.25,0,1,0-.354-.354l-.974.974-.873-.873a.25.25,0,1,0-.354.354l.873.873-.639.64a.25.25,0,1,0,.354.354l.639-.64L24.854,54.5l-.581.582a.25.25,0,0,0,.354.354l.581-.582,1.3,1.3a.25.25,0,0,0,.354-.354Z" fill="#000c1e"/>
    </g>
    <g id="Group_269" data-name="Group 269">
      <path id="Path_174" data-name="Path 174" d="M42.821,55.667l1.456-1.456.349.349a.25.25,0,1,0,.354-.354l-.349-.349.813-.813a.25.25,0,1,0,.353-.353l.58-.579.057.057a.25.25,0,0,0,.354-.354l-.056-.057.829-.829a.25.25,0,0,0-.354-.354l-.829.829-.523-.523a.25.25,0,0,0-.354.354l.523.523-.58.579-.756-.756a.25.25,0,1,0-.354.354l.756.756-.813.813-.756-.756a.25.25,0,1,0-.354.354l.756.756-1.456,1.456a.25.25,0,1,0,.354.353Z" fill="#000c1e"/>
    </g>
  </g>
</svg>
